<svg xmlns="http://www.w3.org/2000/svg" viewBox="0 0 99 16.67"><defs><style>.cls-1,.cls-3,.cls-5{fill:#0f7fb8;}.cls-2,.cls-3,.cls-5{isolation:isolate;}.cls-3,.cls-5{font-size:15px;letter-spacing:-0.04em;}.cls-3{font-family:DINPro-Bold, DIN Pro;font-weight:700;}.cls-4{letter-spacing:-0.04em;}.cls-5{font-family:DINPro, DIN Pro;}.cls-6{letter-spacing:-0.04em;}.cls-7{letter-spacing:-0.04em;}</style></defs><g id="Layer_2" data-name="Layer 2"><g id="Layer_1-2" data-name="Layer 1"><g id="Group_8394" data-name="Group 8394"><g id="Group_220" data-name="Group 220"><g id="Group_218" data-name="Group 218"><path id="Path_848" data-name="Path 848" class="cls-1" d="M2.55,11.46A.59.59,0,0,1,2,11.18L.11,8.28a.63.63,0,0,1,.13-.85l5-4L4.35,2a1.06,1.06,0,0,1,0-1.1A1,1,0,0,1,5.24.35H13.7a1.07,1.07,0,0,1,1,1.5L11.33,9.6a1.06,1.06,0,0,1-.89.64,1.09,1.09,0,0,1-1-.48L8.52,8.35l-1.35.73A.2.2,0,0,1,6.91,9l-1-1.55a.64.64,0,0,0-.62-.3.67.67,0,0,0-.56.4L3.14,11.18a.18.18,0,0,1-.09.1l-.2.11A.63.63,0,0,1,2.55,11.46ZM13.7.74H5.24a.67.67,0,0,0-.56,1l1,1.56a.21.21,0,0,1,0,.27L.49,7.74a.22.22,0,0,0,0,.31L2.35,11a.26.26,0,0,0,.32.08L2.8,11,4.34,7.4a1.08,1.08,0,0,1,1.88-.17l.92,1.4L8.5,7.91A.2.2,0,0,1,8.76,8l1,1.56A.67.67,0,0,0,11,9.43l3.35-7.75h0A.72.72,0,0,0,14.26,1,.68.68,0,0,0,13.7.74Z"/><path id="Path_849" data-name="Path 849" class="cls-1" d="M2,16.66a1,1,0,0,1-.9-.49,1,1,0,0,1-.09-1L4.33,7.4a1.07,1.07,0,0,1,.9-.64,1,1,0,0,1,1,.48l.93,1.4,1.37-.72a.2.2,0,1,1,.18.36l-1.51.81a.19.19,0,0,1-.18,0A.19.19,0,0,1,6.9,9l-1-1.53a.64.64,0,0,0-.62-.3.65.65,0,0,0-.56.4L1.36,15.32a.66.66,0,0,0,.06.64.65.65,0,0,0,.56.3h8.45A.65.65,0,0,0,11,15.9a.66.66,0,0,0,0-.69l-1-1.56a.2.2,0,0,1,0-.27l5.18-4.12a.26.26,0,0,0,.05-.32L13.33,6A.26.26,0,0,0,13,6l-.2.11A.2.2,0,0,1,12.55,6a.19.19,0,0,1,.08-.27l.2-.11a.64.64,0,0,1,.83.21l1.91,2.91a.63.63,0,0,1-.14.84l-5,4L11.33,15a1.06,1.06,0,0,1,.05,1.1,1.08,1.08,0,0,1-1,.57H2Z"/></g><g id="Group_219" data-name="Group 219"><g id="easydispatch" class="cls-2"><text class="cls-3" transform="translate(18.85 12.84)">ea<tspan class="cls-4" x="15.06" y="0">s</tspan><tspan x="21.92" y="0">y</tspan></text><text class="cls-5" transform="translate(47.53 12.84)">dispa<tspan class="cls-6" x="32.53" y="0">t</tspan><tspan class="cls-7" x="36.85" y="0">ch</tspan></text></g></g></g></g></g></g></svg>