<svg xmlns="http://www.w3.org/2000/svg" xmlns:xlink="http://www.w3.org/1999/xlink" viewBox="0 0 72 63"><defs><style>.cls-1{fill:#ededed;}.cls-2{fill:url(#linear-gradient);}.cls-3{fill:url(#linear-gradient-2);}.cls-4{fill:#dea861;}.cls-5{fill:#cc8241;}.cls-6{fill:#5d3645;}.cls-7{fill:#f9a127;}.cls-8{fill:#fff;}</style><linearGradient id="linear-gradient" x1="2619.28" y1="-36.19" x2="2619.42" y2="-36.19" gradientTransform="matrix(27.92, 0, 0, -26.34, -73106.25, -916.57)" gradientUnits="userSpaceOnUse"><stop offset="0" stop-color="#cc8241"/><stop offset="1" stop-color="#dea861"/></linearGradient><linearGradient id="linear-gradient-2" x1="2619.13" y1="-45.55" x2="2619.64" y2="-46.05" gradientTransform="matrix(27.92, 0, 0, -16.7, -73109.2, -741)" gradientUnits="userSpaceOnUse"><stop offset="0" stop-color="#dea861"/><stop offset="1" stop-color="#ebcba0"/></linearGradient></defs><g id="Layer_2" data-name="Layer 2"><g id="Layer_1-2" data-name="Layer 1"><g id="Group_8401" data-name="Group 8401"><g id="Group_8392" data-name="Group 8392"><circle id="Ellipse_4" data-name="Ellipse 4" class="cls-1" cx="30" cy="33" r="30"/><g id="package"><path id="Path_3343" data-name="Path 3343" class="cls-2" d="M44,40.91V23.52l-27.92,1.2v17.4a1.19,1.19,0,0,0,.59,1l11.06,6.38a2.58,2.58,0,0,0,2.55,0l13.13-7.59A1.13,1.13,0,0,0,44,40.91Z"/><path id="Path_3344" data-name="Path 3344" class="cls-3" d="M16.67,23.69l13.14-7.58a2.51,2.51,0,0,1,2.54,0l11.06,6.38a1.19,1.19,0,0,1,.44,1.62,1.21,1.21,0,0,1-.44.43L30.28,32.12a2.51,2.51,0,0,1-2.54,0L16.67,25.74a1.19,1.19,0,0,1-.43-1.62A1.11,1.11,0,0,1,16.67,23.69Z"/><path id="Path_3345" data-name="Path 3345" class="cls-4" d="M20.93,21.23,35,29.37l3.74-2.16L24.67,19.07Z"/><path id="Path_3346" data-name="Path 3346" class="cls-5" d="M23.17,19.94l14.11,8.14-.74.42-14.1-8.14Z"/><g id="Group_8391" data-name="Group 8391"><path id="Path_3347" data-name="Path 3347" class="cls-6" d="M43.07,29l-1.24-1.86-1.24,3.3.65-.38v1.12l1.17-.68V29.41Z"/><path id="Path_3348" data-name="Path 3348" class="cls-6" d="M43.07,30.43l-2.48,1.43v.6L43.07,31Z"/></g><path id="Path_3349" data-name="Path 3349" class="cls-5" d="M35,29.37v3.09l3.74-2.16V27.21Z"/></g></g><g id="Group_8400" data-name="Group 8400"><path id="Rectangle_4256" data-name="Rectangle 4256" class="cls-7" d="M58.5,0h0A13.49,13.49,0,0,1,72,13.5h0A13.49,13.49,0,0,1,58.5,27h0A13.49,13.49,0,0,1,45,13.5h0A13.49,13.49,0,0,1,58.5,0Z"/><path id="Icon_awesome-truck-moving" data-name="Icon awesome-truck-moving" class="cls-8" d="M65.61,13.5l-1.28-1.28a1.37,1.37,0,0,0-1-.41h-.82V9.7a.7.7,0,0,0-.7-.7H52.7a.7.7,0,0,0-.7.7h0v7.36a1.75,1.75,0,0,0,3.15,1.05,1.75,1.75,0,0,0,3.16-1.05,2.16,2.16,0,0,0,0-.35h3.57a1.42,1.42,0,0,0,0,.35,1.75,1.75,0,1,0,3.5.09v-.09a2.16,2.16,0,0,0,0-.35h.38a.35.35,0,0,0,.35-.35V14.49A1.41,1.41,0,0,0,65.61,13.5ZM53.75,17.76a.7.7,0,1,1,.7-.7h0A.7.7,0,0,1,53.75,17.76Zm2.8,0a.7.7,0,1,1,.7-.7h0a.69.69,0,0,1-.69.7Zm6-4.9h.82a.29.29,0,0,1,.25.1l1,.94h-2Zm1.05,4.9a.7.7,0,1,1,.7-.7h0a.69.69,0,0,1-.69.7Z"/></g></g></g></g></svg>