<svg xmlns="http://www.w3.org/2000/svg" viewBox="0 0 34.87 34.87"><defs><style>.cls-1{fill:#fff;}</style></defs><g id="Layer_2" data-name="Layer 2"><g id="Layer_1-2" data-name="Layer 1"><g id="Group_8039" data-name="Group 8039"><path id="Path_5751" data-name="Path 5751" class="cls-1" d="M17.44,34.87A17.44,17.44,0,1,1,34.87,17.44,17.43,17.43,0,0,1,17.44,34.87Zm0-33.55a16.12,16.12,0,1,0,0,32.23h0a16.12,16.12,0,0,0,0-32.23Z"/><path id="Path_5752" data-name="Path 5752" class="cls-1" d="M14.88,27.58H19V17.35h2.85l.3-3.43H19V12c0-.8.16-1.12.94-1.12h2.21V7.3H19.29c-3,0-4.41,1.34-4.41,3.9v2.73H12.76v3.46h2.12Z"/></g></g></g></svg>