<svg xmlns="http://www.w3.org/2000/svg" xmlns:xlink="http://www.w3.org/1999/xlink" viewBox="0 0 142.92 42.34"><defs><style>.cls-1,.cls-8{fill:#fff;}.cls-2{fill:url(#linear-gradient);}.cls-3{fill:url(#linear-gradient-2);}.cls-4{fill:url(#linear-gradient-3);}.cls-5{fill:url(#linear-gradient-4);}.cls-6,.cls-7{fill:#040505;}.cls-6{opacity:0.2;}.cls-6,.cls-7,.cls-8{isolation:isolate;}.cls-7{opacity:0.12;}.cls-8{opacity:0.25;}</style><linearGradient id="linear-gradient" x1="2691.14" y1="-215.27" x2="2691.14" y2="-215.27" gradientTransform="matrix(13.78, 0, 0, -26.47, -36611.94, -5461.73)" gradientUnits="userSpaceOnUse"><stop offset="0" stop-color="#4382c1"/><stop offset="0.01" stop-color="#4484c2"/><stop offset="0.26" stop-color="#51a7de"/><stop offset="0.51" stop-color="#59b7e7"/><stop offset="0.76" stop-color="#64b9dd"/><stop offset="1" stop-color="#68badc"/></linearGradient><linearGradient id="linear-gradient-2" x1="2639.87" y1="-251.45" x2="2639.86" y2="-251.45" gradientTransform="matrix(10.75, 0, 0, -9, -27915.93, -2241.56)" gradientUnits="userSpaceOnUse"><stop offset="0" stop-color="#f5d349"/><stop offset="0.41" stop-color="#f0ac3d"/><stop offset="0.78" stop-color="#ea9136"/><stop offset="1" stop-color="#e88835"/></linearGradient><linearGradient id="linear-gradient-3" x1="2711.84" y1="-242.31" x2="2711.84" y2="-242.3" gradientTransform="matrix(17.68, 0, 0, -13.64, -47805.53, -3090.98)" gradientUnits="userSpaceOnUse"><stop offset="0" stop-color="#d13c40"/><stop offset="1" stop-color="#9f2351"/></linearGradient><linearGradient id="linear-gradient-4" x1="2707.92" y1="-222.89" x2="2707.92" y2="-222.89" gradientTransform="matrix(17.68, 0, 0, -13.59, -47805.53, -3095.26)" gradientUnits="userSpaceOnUse"><stop offset="0" stop-color="#508b61"/><stop offset="0.07" stop-color="#529161"/><stop offset="0.48" stop-color="#67a665"/><stop offset="0.8" stop-color="#72a960"/><stop offset="1" stop-color="#77ab5f"/></linearGradient></defs><g id="Layer_2" data-name="Layer 2"><g id="Layer_1-2" data-name="Layer 1"><g id="Group_7" data-name="Group 7"><path id="Path_16" data-name="Path 16" class="cls-1" d="M137.62,42.34H5.29A5.24,5.24,0,0,1,0,37.15H0V5.29A5.25,5.25,0,0,1,5.19,0H137.62a5.24,5.24,0,0,1,5.3,5.19V37.05a5.24,5.24,0,0,1-5.19,5.29h-.11Z"/><path id="Path_18" data-name="Path 18" d="M50.18,10.79a2.9,2.9,0,0,1-.74,2.12,3.28,3.28,0,0,1-5.61-2.33A3.24,3.24,0,0,1,47.11,7.3a2.84,2.84,0,0,1,1.27.32,2.36,2.36,0,0,1,.95.74l-.53.53a2,2,0,0,0-1.69-.74,2.09,2.09,0,0,0-1.7.74,2.2,2.2,0,0,0-.74,1.8,2.2,2.2,0,0,0,.74,1.8,2.69,2.69,0,0,0,1.7.74,2.32,2.32,0,0,0,1.8-.74,1.79,1.79,0,0,0,.53-1.27H47.11v-.85h3.07v.42Zm4.87-2.64H52.19v2h2.65v.74H52.19v2h2.86v.85H51.34V7.41h3.71Zm3.49,5.61h-.85V8.15h-1.8V7.41h4.45v.74h-1.8Zm4.87,0V7.41h.85v6.35Zm4.45,0H67V8.15h-1.8V7.41h4.34v.74h-1.8v5.61Zm10-.85a3.32,3.32,0,0,1-4.65,0,3.1,3.1,0,0,1-1-2.33,3.3,3.3,0,0,1,5.61-2.33,3.16,3.16,0,0,1,1,2.33A3.14,3.14,0,0,1,77.91,12.91Zm-4-.53a2.48,2.48,0,0,0,1.69.74,2.09,2.09,0,0,0,1.7-.74,2.57,2.57,0,0,0,.74-1.8,2.2,2.2,0,0,0-.74-1.8A2.53,2.53,0,0,0,75.58,8a2.12,2.12,0,0,0-1.69.74,2.59,2.59,0,0,0-.74,1.8A2.17,2.17,0,0,0,73.89,12.38ZM80,13.76V7.41h1l3.07,5v-5h.85v6.35h-.85L80.77,8.57v5.19Z"/><path id="Path_19" data-name="Path 19" d="M72.09,23.07a4.45,4.45,0,0,0-4.55,4.35h0v.2A4.51,4.51,0,0,0,72,32.18h.07a4.45,4.45,0,0,0,4.55-4.35h0v-.2a4.39,4.39,0,0,0-4.23-4.56h-.32Zm0,7.2a2.62,2.62,0,0,1-2.54-2.71v0a2.63,2.63,0,0,1,2.5-2.75h0a2.57,2.57,0,0,1,2.55,2.58,1,1,0,0,1,0,.17,2.63,2.63,0,0,1-2.5,2.75h0Zm-9.84-7.2a4.47,4.47,0,0,0-4.56,4.36h0v.2a4.53,4.53,0,0,0,4.49,4.55h.07a4.46,4.46,0,0,0,4.55-4.35h0v-.2a4.39,4.39,0,0,0-4.23-4.56Zm0,7.2a2.63,2.63,0,0,1-2.55-2.71v0a2.63,2.63,0,0,1,2.5-2.75h0a2.57,2.57,0,0,1,2.54,2.58h0v.17a2.63,2.63,0,0,1-2.5,2.75h0ZM50.5,24.45v1.9h4.55A4,4,0,0,1,54,28.78a4.66,4.66,0,0,1-3.49,1.38,4.92,4.92,0,0,1-5-4.88h0v-.2A5,5,0,0,1,50.42,20h.07A5.27,5.27,0,0,1,54,21.37L55.36,20a6.77,6.77,0,0,0-4.76-1.9,7.13,7.13,0,0,0-7.09,7,7.13,7.13,0,0,0,7.09,7,6.13,6.13,0,0,0,4.87-2,6.36,6.36,0,0,0,1.69-4.45,3.78,3.78,0,0,0-.1-1.16Zm48.06,1.48a4.12,4.12,0,0,0-3.81-2.86,4.27,4.27,0,0,0-4.25,4.29,2.26,2.26,0,0,1,0,.26,4.45,4.45,0,0,0,4.31,4.56H95a4.36,4.36,0,0,0,3.71-2l-1.49-1.05A2.59,2.59,0,0,1,95,30.38,2.29,2.29,0,0,1,92.74,29l6-2.54-.21-.53Zm-6.14,1.48a2.57,2.57,0,0,1,2.33-2.65,1.87,1.87,0,0,1,1.69,1l-4,1.69Zm-5,4.34h2V18.52h-2ZM84.27,24A3.47,3.47,0,0,0,81.83,23a4.55,4.55,0,0,0-4.34,4.55A4.38,4.38,0,0,0,81.81,32h0a3.05,3.05,0,0,0,2.33-1.05h.11v.63a2.36,2.36,0,0,1-2,2.63,3,3,0,0,1-.42,0,2.35,2.35,0,0,1-2.22-1.59l-1.7.74a4.38,4.38,0,0,0,4,2.65c2.32,0,4.23-1.38,4.23-4.66v-8h-1.9V24Zm-2.33,6.25a2.64,2.64,0,0,1-2.55-2.71v0a2.63,2.63,0,0,1,2.5-2.75h0a2.55,2.55,0,0,1,2.44,2.65.38.38,0,0,1,0,.1A2.54,2.54,0,0,1,82,30.26Zm25.83-11.75H103V31.75h2v-5h2.75a4.19,4.19,0,0,0,4.34-4h0v-.12a4.18,4.18,0,0,0-4.23-4.13h-.11Zm.1,6.35H105V20.32h2.85a2.32,2.32,0,0,1,2.33,2.22,2.41,2.41,0,0,1-2.33,2.33ZM120.05,23a3.54,3.54,0,0,0-3.49,2l1.8.74a1.88,1.88,0,0,1,1.8-.95,2,2,0,0,1,2.12,1.7v.1a4.31,4.31,0,0,0-2-.53c-1.9,0-3.8,1.06-3.8,3a3.09,3.09,0,0,0,3.22,3h.06a3,3,0,0,0,2.54-1.27h.1v1.06h1.9V26.68A4,4,0,0,0,120.05,23Zm-.21,7.3c-.64,0-1.59-.32-1.59-1.16,0-1.06,1.17-1.38,2.12-1.38a4,4,0,0,1,1.8.43,2.47,2.47,0,0,1-2.33,2.11Zm11.11-7L128.73,29h-.1l-2.33-5.72h-2.12l3.49,8-2,4.44h2l5.4-12.49Zm-17.78,8.47h2V18.52h-2Z"/><g id="Group_6" data-name="Group 6"><path id="Path_20" data-name="Path 20" class="cls-2" d="M11,7.93a2.1,2.1,0,0,0-.43,1.49v23.4a2.13,2.13,0,0,0,.53,1.48l.11.1L24.35,21.27v-.21Z"/><path id="Path_21" data-name="Path 21" class="cls-3" d="M28.58,25.72l-4.34-4.34v-.32l4.34-4.34.11.11,5.19,3c1.48.85,1.48,2.23,0,3.07Z"/><path id="Path_22" data-name="Path 22" class="cls-4" d="M28.69,25.61l-4.45-4.44L11,34.4c.53.53,1.27.53,2.22.11l15.46-8.89"/><path id="Path_23" data-name="Path 23" class="cls-5" d="M28.69,16.72,13.23,7.93A1.71,1.71,0,0,0,11,8L24.24,21.17l4.45-4.45Z"/><path id="Path_24" data-name="Path 24" class="cls-6" d="M28.58,25.51,13.23,34.19a1.74,1.74,0,0,1-2.12,0l-.1.11.1.1a1.74,1.74,0,0,0,2.12,0Z"/><path id="Path_25" data-name="Path 25" class="cls-7" d="M11,34.19a2.1,2.1,0,0,1-.43-1.49v.11a2.11,2.11,0,0,0,.53,1.48v-.1ZM33.87,22.54l-5.29,3,.11.1,5.18-3a1.76,1.76,0,0,0,1.06-1.48c0,.53-.42.95-1.06,1.38Z"/><path id="Path_26" data-name="Path 26" class="cls-8" d="M13.23,8,33.87,19.79c.64.43,1.06.85,1.06,1.38a1.76,1.76,0,0,0-1.06-1.48L13.23,7.94c-1.48-.85-2.65-.22-2.65,1.48v.1C10.58,7.94,11.75,7.2,13.23,8Z"/></g></g></g></g></svg>