<svg xmlns="http://www.w3.org/2000/svg" viewBox="0 0 141.07 40.46"><defs><style>.cls-1{fill:#fff;}</style></defs><g id="Layer_2" data-name="Layer 2"><g id="Layer_1-2" data-name="Layer 1"><g id="Group_5" data-name="Group 5"><path id="Path_12" data-name="Path 12" class="cls-1" d="M141.05,36.41a4,4,0,0,1-4,4.05H4.07A4.06,4.06,0,0,1,0,36.41V4.07A4.09,4.09,0,0,1,4.07,0H137a4.06,4.06,0,0,1,4.07,4.06h0l0,32.34Z"/><path id="Path_13" data-name="Path 13" d="M31,20a6.11,6.11,0,0,1,2.92-5.15,6.28,6.28,0,0,0-5-2.68c-2.09-.23-4.1,1.26-5.17,1.26S21,12.22,19.26,12.26a6.66,6.66,0,0,0-5.56,3.39c-2.4,4.16-.62,10.27,1.7,13.61,1.14,1.64,2.49,3.47,4.25,3.4s2.36-1.1,4.44-1.1,2.65,1.1,4.46,1.06,3-1.65,4.12-3.32a13.44,13.44,0,0,0,1.88-3.84A6,6,0,0,1,31,20ZM27.57,10a6,6,0,0,0,1.37-4.32,6.22,6.22,0,0,0-4,2.06,5.71,5.71,0,0,0-1.42,4.16,5.08,5.08,0,0,0,4-1.9Z"/><path id="Path_15" data-name="Path 15" d="M55.89,32.44h-2.4L52.17,28.3H47.59l-1.26,4.14H44l4.53-14.09h2.81Zm-4.11-5.88-1.19-3.68c-.14-.37-.37-1.26-.71-2.66h-.05c-.14.6-.37,1.49-.66,2.66L48,26.56Zm15.76.66a5.76,5.76,0,0,1-1.42,4.1A4.12,4.12,0,0,1,63,32.66a3.15,3.15,0,0,1-2.91-1.44v5.33H57.84V25.6c0-1.08,0-2.2-.1-3.34h2l.14,1.6h.05A3.76,3.76,0,0,1,63.35,22a3.8,3.8,0,0,1,3,1.41,5.79,5.79,0,0,1,1.19,3.78Zm-2.29.09a4.33,4.33,0,0,0-.66-2.45,2.4,2.4,0,0,0-3.48-.45,2.44,2.44,0,0,0-.89,1.46,4.16,4.16,0,0,0-.12.69v1.69a2.77,2.77,0,0,0,.69,1.88,2.3,2.3,0,0,0,1.76.75,2.32,2.32,0,0,0,2-1,4.26,4.26,0,0,0,.71-2.59Zm14-.09a5.76,5.76,0,0,1-1.42,4.1,4.12,4.12,0,0,1-3.13,1.34,3.15,3.15,0,0,1-2.91-1.44v5.33H69.53V25.6c0-1.08,0-2.2-.09-3.34h2l.13,1.6h0A4,4,0,0,1,78,23.44a5.75,5.75,0,0,1,1.21,3.78Zm-2.31.09a4.26,4.26,0,0,0-.67-2.45,2.39,2.39,0,0,0-3.47-.45,2.5,2.5,0,0,0-.9,1.46,3.2,3.2,0,0,0-.11.69v1.69a2.72,2.72,0,0,0,.69,1.88,2.29,2.29,0,0,0,1.76.75,2.32,2.32,0,0,0,2-1,4.26,4.26,0,0,0,.71-2.59Zm15.37,1.17a3.73,3.73,0,0,1-1.26,2.93,5.56,5.56,0,0,1-3.84,1.23,7,7,0,0,1-3.66-.87l.53-1.87a6.23,6.23,0,0,0,3.27.86,3,3,0,0,0,2-.57,1.84,1.84,0,0,0,.71-1.53,2,2,0,0,0-.6-1.44,5.47,5.47,0,0,0-2-1.1q-3.7-1.38-3.7-4.05a3.55,3.55,0,0,1,1.3-2.84,5.3,5.3,0,0,1,3.45-1.1,7.06,7.06,0,0,1,3.2.67l-.57,1.83a5.52,5.52,0,0,0-2.7-.64,2.75,2.75,0,0,0-1.87.6,1.75,1.75,0,0,0,.06,2.65,7.44,7.44,0,0,0,2.06,1.1,6.77,6.77,0,0,1,2.68,1.71,3.36,3.36,0,0,1,.9,2.43ZM99.8,24H97.3v5c0,1.25.44,1.87,1.33,1.87a3.14,3.14,0,0,0,1-.11l.06,1.71a5,5,0,0,1-1.76.25,2.63,2.63,0,0,1-2.08-.82,4,4,0,0,1-.75-2.74V24H93.62V22.26h1.49V20.41l2.21-.67v2.54h2.5l0,1.7ZM111,27.27a5.61,5.61,0,0,1-1.35,3.84,4.84,4.84,0,0,1-3.73,1.56,4.6,4.6,0,0,1-3.57-1.49A5.37,5.37,0,0,1,101,27.43a5.51,5.51,0,0,1,1.38-3.87,4.73,4.73,0,0,1,3.68-1.51,4.64,4.64,0,0,1,3.59,1.49A5.31,5.31,0,0,1,111,27.27Zm-2.34,0a4.72,4.72,0,0,0-.59-2.4,2.36,2.36,0,0,0-4.12,0,4.59,4.59,0,0,0-.59,2.45,4.57,4.57,0,0,0,.59,2.4,2.32,2.32,0,0,0,4.1,0,4.55,4.55,0,0,0,.61-2.42Zm9.68-3.06a3.35,3.35,0,0,0-.71-.07,2.1,2.1,0,0,0-1.83.89,3.37,3.37,0,0,0-.57,2v5.33H113v-7c0-1.07,0-2.12-.06-3.2h2l.09,1.95H115a3.42,3.42,0,0,1,1.12-1.6,2.8,2.8,0,0,1,1.63-.55,5.46,5.46,0,0,1,.57,0v2.15Zm10.11,2.63a5.12,5.12,0,0,1-.09,1H121.6a2.9,2.9,0,0,0,1,2.31,3.3,3.3,0,0,0,2.22.71,7.59,7.59,0,0,0,2.75-.48l.34,1.56a8.69,8.69,0,0,1-3.41.61,4.87,4.87,0,0,1-3.71-1.39,5.24,5.24,0,0,1-1.35-3.73,5.75,5.75,0,0,1,1.26-3.82,4.27,4.27,0,0,1,3.55-1.62,3.74,3.74,0,0,1,3.31,1.62,5.35,5.35,0,0,1,.92,3.2Zm-2.15-.6a3.08,3.08,0,0,0-.43-1.73,1.94,1.94,0,0,0-1.81-.94,2.15,2.15,0,0,0-1.81.91,3.45,3.45,0,0,0-.66,1.76ZM47,13.36a10.92,10.92,0,0,1-1.62-.09V6.45a12.23,12.23,0,0,1,1.92-.13C49.83,6.32,51,7.6,51,9.68c0,2.38-1.41,3.68-4.07,3.68Zm.37-6.18a5.46,5.46,0,0,0-.9.07v5.17a6.43,6.43,0,0,0,.76,0,2.44,2.44,0,0,0,2.66-2.2,2.09,2.09,0,0,0,0-.56,2.25,2.25,0,0,0-2-2.5,2.44,2.44,0,0,0-.54,0Zm7.41,6.23a2.38,2.38,0,0,1-2.41-2.34,1.77,1.77,0,0,1,0-.23,2.43,2.43,0,0,1,2.21-2.62h.28a2.35,2.35,0,0,1,2.41,2.29,1.31,1.31,0,0,1,0,.28A2.45,2.45,0,0,1,55,13.4ZM54.78,9c-.8,0-1.33.76-1.33,1.81s.53,1.78,1.3,1.78,1.3-.8,1.3-1.8S55.55,9,54.77,9ZM65.55,8.3l-1.55,5H63l-.64-2.17c-.16-.53-.3-1.08-.42-1.63h0a9.26,9.26,0,0,1-.41,1.63l-.68,2.17h-1l-1.47-5h1.15L60,10.68c.14.58.25,1.1.34,1.6h0c.09-.41.2-.93.41-1.6L61.5,8.3h.92l.69,2.34c.16.57.29,1.12.41,1.64h0a13.26,13.26,0,0,1,.34-1.64L64.5,8.3Zm5.75,5H70.19V10.43c0-.89-.33-1.33-1-1.33a1.16,1.16,0,0,0-1.12,1.19h0v3H66.94V9.73c0-.44,0-.92,0-1.42h1l.05.78h0a1.83,1.83,0,0,1,1.58-.87c1,0,1.74.8,1.74,2.1l0,3Zm3.06,0H73.24V6h1.12Zm4,.11A2.37,2.37,0,0,1,76,11.06a1.7,1.7,0,0,1,0-.22,2.43,2.43,0,0,1,2.21-2.62h.28a2.35,2.35,0,0,1,2.41,2.29h0a1.22,1.22,0,0,1,0,.27,2.44,2.44,0,0,1-2.25,2.63h-.24Zm0-4.39c-.8,0-1.33.76-1.33,1.81s.53,1.78,1.3,1.78,1.3-.8,1.3-1.81S79.23,9,78.45,9Zm6.81,4.28-.09-.57h0a1.7,1.7,0,0,1-1.46.68A1.44,1.44,0,0,1,82.16,12v-.1c0-1.23,1.07-1.87,2.92-1.87V10c0-.66-.34-1-1-1a2.38,2.38,0,0,0-1.3.36l-.23-.73a3.07,3.07,0,0,1,1.72-.43c1.3,0,2,.69,2,2.06v1.83a6.73,6.73,0,0,0,.07,1.19l-1,0Zm-.16-2.49c-1.23,0-1.85.3-1.85,1a.71.71,0,0,0,.62.78H84a1.08,1.08,0,0,0,1.1-1Zm6.48,2.49,0-.8h0a1.69,1.69,0,0,1-1.6.91A2.26,2.26,0,0,1,87.81,11a.62.62,0,0,1,0-.13c0-1.55.91-2.65,2.2-2.65a1.53,1.53,0,0,1,1.42.69h0V6h1.12v5.95c0,.48,0,.94,0,1.35Zm-.16-2.93a1.22,1.22,0,0,0-1.11-1.3h-.06c-.82,0-1.33.74-1.33,1.77s.53,1.69,1.3,1.69a1.26,1.26,0,0,0,1.2-1.3h0v-.86Zm8.17,3.05a2.38,2.38,0,0,1-2.41-2.34h0v-.23a2.43,2.43,0,0,1,2.22-2.62h.28a2.35,2.35,0,0,1,2.41,2.29,2.72,2.72,0,0,1,0,.28,2.45,2.45,0,0,1-2.26,2.62H99.6Zm0-4.4c-.8,0-1.3.76-1.3,1.81s.53,1.78,1.3,1.78,1.3-.8,1.3-1.8S100.41,9,99.64,9Zm8.42,4.28h-1.12V10.43c0-.89-.34-1.32-1-1.32a1.14,1.14,0,0,0-1.1,1.18h0v3h-1.12V9.72c0-.43,0-.91,0-1.41h1l0,.77h0a1.82,1.82,0,0,1,1.57-.87c1.06,0,1.74.8,1.74,2.1v3Zm7.46-4.16h-1.21v2.42c0,.62.2.92.64.92a2.73,2.73,0,0,0,.5-.05l0,.85a2.32,2.32,0,0,1-.87.11c-.86,0-1.4-.48-1.4-1.74V9.13h-.73V8.3h.73V7.39l1.1-.32V8.3h1.21Zm5.88,4.16h-1.1V10.45c0-.89-.34-1.35-1-1.35a1.1,1.1,0,0,0-1.12,1.08v3.13h-1.1V6h1.1V9h0a1.66,1.66,0,0,1,1.51-.82c1,0,1.69.82,1.69,2.13v3Zm6-2.22h-3.34a1.43,1.43,0,0,0,1.39,1.49h.19a4.16,4.16,0,0,0,1.35-.23l.18.78a4.33,4.33,0,0,1-1.67.3,2.33,2.33,0,0,1-2.5-2.14h0a2.41,2.41,0,0,1,0-.38,2.42,2.42,0,0,1,2.16-2.66l.19,0a2.1,2.1,0,0,1,2.1,2.1,2.81,2.81,0,0,1,0,.29,1.83,1.83,0,0,1,0,.47Zm-1-.8c0-.78-.39-1.33-1.1-1.33a1.32,1.32,0,0,0-1.21,1.33Z"/></g></g></g></svg>