<svg xmlns="http://www.w3.org/2000/svg" viewBox="0 0 92.39 77.45"><defs><style>.cls-1{fill:#fff;}.cls-2{fill:#f9a127;}</style></defs><g id="Layer_2" data-name="Layer 2"><g id="Layer_1-2" data-name="Layer 1"><g id="Group_97" data-name="Group 97"><rect id="Rectangle_45" data-name="Rectangle 45" class="cls-1" y="4.89" width="15.77" height="68.24"/><path id="Path_146" data-name="Path 146" class="cls-1" d="M33.75,15.86a8.86,8.86,0,0,1-6.55,2.67,8.86,8.86,0,0,1-6.55-2.67A9,9,0,0,1,18,9.27a9,9,0,0,1,2.67-6.6A8.93,8.93,0,0,1,27.2,0a8.93,8.93,0,0,1,6.55,2.67,9,9,0,0,1,2.67,6.6,9,9,0,0,1-2.67,6.59M19.36,21.67H35.13V73.12H19.36Z"/><path id="Path_147" data-name="Path 147" class="cls-1" d="M67,45.42l.21.47-8.36,3.87-.22-.47A4.61,4.61,0,1,1,67,45.42"/><path id="Path_148" data-name="Path 148" class="cls-1" d="M92.39,4.89V66.16L79.84,41.64a1.53,1.53,0,0,0-2-.69L70,44.6l-.22-.47a7.66,7.66,0,0,0-13.91,6.44L56,51l-7.89,3.65a1.53,1.53,0,0,0-.77,2L54,72.54A22.65,22.65,0,0,1,44.9,66.4Q38.08,59,38.08,47.49t6.82-19a21.77,21.77,0,0,1,16.65-7.42q9.83,0,15.08,7.28V4.89Z"/><path id="Path_149" data-name="Path 149" class="cls-2" d="M76.73,56.65l-.7.14h0l-.7.13a.49.49,0,0,0-.39.57.49.49,0,0,0,.57.39l.21,0a7.74,7.74,0,0,1-13.23,6.34l.16-.13A.49.49,0,0,0,62,63.3l-.54.47h0l-.54.47a.48.48,0,0,0-.06.68.51.51,0,0,0,.59.13l.1-.07.19-.16a8.71,8.71,0,0,0,14.93-7.16l.24,0a.28.28,0,0,0,.12,0,.48.48,0,0,0,.27-.53.49.49,0,0,0-.57-.39"/><g id="Group_96" data-name="Group 96"><path id="Path_150" data-name="Path 150" class="cls-1" d="M69.5,74a1.3,1.3,0,0,1,.73.59l-.4.17a.9.9,0,0,0-.49-.41,1,1,0,0,0-.69,0,.82.82,0,0,0-.44.38.62.62,0,0,0,0,.5.55.55,0,0,0,.25.27,1,1,0,0,0,.37,0,3,3,0,0,0,.52-.07A5,5,0,0,1,70,75.4a1.17,1.17,0,0,1,.49.11.88.88,0,0,1,.37.44.85.85,0,0,1,0,.76,1.18,1.18,0,0,1-.66.58,1.56,1.56,0,0,1-1,.12,1.18,1.18,0,0,1-.75-.58l.4-.18a.84.84,0,0,0,.51.41,1.14,1.14,0,0,0,.75-.08.8.8,0,0,0,.42-.37.58.58,0,0,0,0-.5.51.51,0,0,0-.26-.28.82.82,0,0,0-.38-.06,5,5,0,0,0-.54.07,4.48,4.48,0,0,1-.64.08,1.1,1.1,0,0,1-.47-.1.82.82,0,0,1-.36-.42.87.87,0,0,1,0-.77,1.29,1.29,0,0,1,.69-.59A1.36,1.36,0,0,1,69.5,74Z"/><path id="Path_151" data-name="Path 151" class="cls-1" d="M73.33,75.46l.16.37L73.1,76a1.11,1.11,0,0,1-.8.08,1.14,1.14,0,0,1-.56-.66l-.83-1.92-.5.21-.16-.37.5-.21-.35-.83.42-.18.36.83.9-.39.15.37-.9.38.83,1.93a.73.73,0,0,0,.33.42.62.62,0,0,0,.5-.06Z"/><path id="Path_152" data-name="Path 152" class="cls-1" d="M75.15,71.42a1.6,1.6,0,0,1,.83.34,2,2,0,0,1,.59.8,2,2,0,0,1,.18,1,1.59,1.59,0,0,1-.33.84,1.9,1.9,0,0,1-.75.56,2,2,0,0,1-.92.16,1.6,1.6,0,0,1-.84-.34,2,2,0,0,1-.6-.8,2,2,0,0,1-.17-1,1.6,1.6,0,0,1,.34-.84,1.81,1.81,0,0,1,.75-.56A2,2,0,0,1,75.15,71.42Zm-1.3.93a1.2,1.2,0,0,0-.25.63,1.47,1.47,0,0,0,.14.8,1.56,1.56,0,0,0,.48.65,1.13,1.13,0,0,0,.63.25A1.44,1.44,0,0,0,76,74.16a1.14,1.14,0,0,0,.25-.62,1.47,1.47,0,0,0-.14-.8,1.66,1.66,0,0,0-.48-.66,1.2,1.2,0,0,0-.63-.25,1.32,1.32,0,0,0-.65.11,1.37,1.37,0,0,0-.54.41Z"/><path id="Path_153" data-name="Path 153" class="cls-1" d="M77.57,70.35a1.69,1.69,0,0,1,.69-.52l.2.45-.14.06a1.27,1.27,0,0,0-.67.6,1.08,1.08,0,0,0,0,1l.77,1.79-.43.18-1.4-3.27.42-.18.29.68A1.33,1.33,0,0,1,77.57,70.35Z"/><path id="Path_154" data-name="Path 154" class="cls-1" d="M82.19,71.46a.94.94,0,0,0,.1-.75l.44-.19a1.41,1.41,0,0,1-.13,1.06,1.74,1.74,0,0,1-.89.76,1.82,1.82,0,0,1-.92.16,1.51,1.51,0,0,1-.81-.34,2,2,0,0,1-.59-.81,2.06,2.06,0,0,1-.18-1,1.56,1.56,0,0,1,.31-.83,1.88,1.88,0,0,1,.75-.55,1.68,1.68,0,0,1,.91-.16,1.54,1.54,0,0,1,.77.31,1.6,1.6,0,0,1,.5.65,1.7,1.7,0,0,1,.1.32l-2.7,1.16a1.51,1.51,0,0,0,.47.62,1.07,1.07,0,0,0,.6.22,1.22,1.22,0,0,0,.62-.11A1.28,1.28,0,0,0,82.19,71.46Zm-2.3-1.75a1.08,1.08,0,0,0-.25.59,1.52,1.52,0,0,0,.11.76l2.31-1a1.25,1.25,0,0,0-.42-.62,1.16,1.16,0,0,0-.59-.23,1.41,1.41,0,0,0-.64.12,1.3,1.3,0,0,0-.52.38Z"/></g></g></g></g></svg>