<svg xmlns="http://www.w3.org/2000/svg" viewBox="0 0 34.87 34.87"><defs><style>.cls-1{fill:#fff;}</style></defs><g id="Layer_2" data-name="Layer 2"><g id="Layer_1-2" data-name="Layer 1"><g id="Group_8041" data-name="Group 8041"><path id="Path_5753" data-name="Path 5753" class="cls-1" d="M17.44,34.87A17.44,17.44,0,1,1,34.87,17.44,17.43,17.43,0,0,1,17.44,34.87Zm0-33.55A16.12,16.12,0,1,0,33.55,17.44h0A16.13,16.13,0,0,0,17.44,1.32Z"/><g id="Group_8040" data-name="Group 8040"><path id="Path_5754" data-name="Path 5754" class="cls-1" d="M17.44,9.89c2.45,0,2.74,0,3.71.06a5.22,5.22,0,0,1,1.71.31A3.06,3.06,0,0,1,24.61,12a5,5,0,0,1,.31,1.71c0,1,.06,1.26.06,3.71s0,2.75-.06,3.72a5,5,0,0,1-.31,1.71,3.08,3.08,0,0,1-1.75,1.75,5.22,5.22,0,0,1-1.71.31c-1,0-1.26.06-3.71.06s-2.75,0-3.72-.06A5.27,5.27,0,0,1,12,24.61a3.06,3.06,0,0,1-1.74-1.75A5,5,0,0,1,10,21.15c0-1,0-1.26,0-3.72s0-2.74,0-3.71A5,5,0,0,1,10.27,12,3.09,3.09,0,0,1,12,10.26,5.27,5.27,0,0,1,13.72,10c1,0,1.26-.06,3.72-.06m0-1.65c-2.5,0-2.82,0-3.8,0a6.84,6.84,0,0,0-2.23.43,4.75,4.75,0,0,0-2.69,2.69,6.84,6.84,0,0,0-.43,2.23c0,1,0,1.3,0,3.79s0,2.82,0,3.8a6.79,6.79,0,0,0,.43,2.23,4.72,4.72,0,0,0,2.69,2.69,6.84,6.84,0,0,0,2.23.43c1,0,1.3.05,3.8.05s2.81,0,3.79-.05a6.79,6.79,0,0,0,2.23-.43,4.69,4.69,0,0,0,2.69-2.69,6.79,6.79,0,0,0,.43-2.23c0-1,.05-1.3.05-3.8s0-2.81-.05-3.79a6.84,6.84,0,0,0-.43-2.23,4.72,4.72,0,0,0-2.69-2.69,6.79,6.79,0,0,0-2.23-.43c-1,0-1.3,0-3.79,0"/><path id="Path_5755" data-name="Path 5755" class="cls-1" d="M17.44,12.71a4.73,4.73,0,1,0,4.72,4.73,4.73,4.73,0,0,0-4.72-4.73m0,7.79a3.07,3.07,0,1,1,3.06-3.06,3.06,3.06,0,0,1-3.06,3.06"/><path id="Path_5756" data-name="Path 5756" class="cls-1" d="M23.45,12.53a1.1,1.1,0,1,1-1.1-1.1,1.1,1.1,0,0,1,1.1,1.1h0"/></g></g></g></g></svg>