<svg xmlns="http://www.w3.org/2000/svg" xmlns:xlink="http://www.w3.org/1999/xlink" viewBox="0 0 93 93"><defs><style>.cls-1{fill:#ededed;}.cls-2{fill:url(#linear-gradient);}.cls-3{fill:url(#linear-gradient-2);}.cls-4{fill:#dea861;}.cls-5{fill:#cc8241;}.cls-6{fill:#5d3645;}</style><linearGradient id="linear-gradient" x1="2664.04" y1="-14.91" x2="2664.18" y2="-14.91" gradientTransform="matrix(43.27, 0, 0, -40.83, -115218.37, -556.53)" gradientUnits="userSpaceOnUse"><stop offset="0" stop-color="#cc8241"/><stop offset="1" stop-color="#dea861"/></linearGradient><linearGradient id="linear-gradient-2" x1="2663.87" y1="-20.64" x2="2664.39" y2="-21.14" gradientTransform="matrix(43.26, 0, 0, -25.88, -115207.65, -508.54)" gradientUnits="userSpaceOnUse"><stop offset="0" stop-color="#dea861"/><stop offset="1" stop-color="#ebcba0"/></linearGradient></defs><g id="Layer_2" data-name="Layer 2"><g id="Layer_1-2" data-name="Layer 1"><g id="Group_8392" data-name="Group 8392"><circle id="Ellipse_4" data-name="Ellipse 4" class="cls-1" cx="46.5" cy="46.5" r="46.5"/><g id="package"><path id="Path_3343" data-name="Path 3343" class="cls-2" d="M68.28,58.55V31.6L25,33.45v27A1.82,1.82,0,0,0,25.93,62l17.14,9.9a3.91,3.91,0,0,0,3.94,0L67.36,60.14A1.82,1.82,0,0,0,68.28,58.55Z"/><path id="Path_3344" data-name="Path 3344" class="cls-3" d="M25.93,31.86,46.28,20.11a4,4,0,0,1,3.94,0L67.36,30A1.83,1.83,0,0,1,68,32.52a1.87,1.87,0,0,1-.67.67L47,44.93a3.91,3.91,0,0,1-3.94,0L25.93,35a1.82,1.82,0,0,1-.67-2.5A1.8,1.8,0,0,1,25.93,31.86Z"/><path id="Path_3345" data-name="Path 3345" class="cls-4" d="M32.53,28.05,54.39,40.67l5.8-3.35L38.33,24.7Z"/><path id="Path_3346" data-name="Path 3346" class="cls-5" d="M36,26.05,57.85,38.67l-1.13.65L34.86,26.7Z"/><g id="Group_8391" data-name="Group 8391"><path id="Path_3347" data-name="Path 3347" class="cls-6" d="M66.83,40.14,64.9,37.26,63,42.36l1-.59V43.5l1.82-1V40.72Z"/><path id="Path_3348" data-name="Path 3348" class="cls-6" d="M66.83,42.31,63,44.53v.93l3.85-2.22Z"/></g><path id="Path_3349" data-name="Path 3349" class="cls-5" d="M54.39,40.67v4.79l5.8-3.35V37.32Z"/></g></g></g></g></svg>