<svg xmlns="http://www.w3.org/2000/svg" viewBox="0 0 34.87 34.87"><defs><style>.cls-1{fill:#fff;}</style></defs><g id="Layer_2" data-name="Layer 2"><g id="Layer_1-2" data-name="Layer 1"><g id="Group_8038" data-name="Group 8038"><path id="Path_5749" data-name="Path 5749" class="cls-1" d="M17.43,34.87A17.44,17.44,0,1,1,34.87,17.44,17.44,17.44,0,0,1,17.43,34.87Zm0-33.55A16.12,16.12,0,1,0,33.55,17.44,16.12,16.12,0,0,0,17.43,1.32Z"/><path id="Path_5750" data-name="Path 5750" class="cls-1" d="M8.5,23.05a10.43,10.43,0,0,0,16.05-9.26,7.69,7.69,0,0,0,1.83-1.9,7.35,7.35,0,0,1-2.11.58,3.65,3.65,0,0,0,1.61-2,7.5,7.5,0,0,1-2.33.89,3.67,3.67,0,0,0-6.25,3.34,10.4,10.4,0,0,1-7.56-3.83,3.68,3.68,0,0,0,1.14,4.9,3.72,3.72,0,0,1-1.66-.46,3.67,3.67,0,0,0,2.94,3.64A3.72,3.72,0,0,1,10.5,19a3.67,3.67,0,0,0,3.43,2.54A7.37,7.37,0,0,1,8.5,23.05Z"/></g></g></g></svg>